<svg xmlns="http://www.w3.org/2000/svg" viewBox="0 0 821 279.9"><path fill="none" stroke="#7495d4" stroke-width="2" stroke-linecap="round" stroke-linejoin="round" stroke-miterlimit="10" d="M145 215.9L266.8 33.1c2-3 6.3-3 8.3 0L367 170.9m230.1-39.1L653 48c2-3 6.3-3 8.3 0l74.3 111.4M424.4 50l.2-.2L441 25.2l14.6-21.9c2-3 6.3-3 8.3 0l12.9 19.3 7 10.5"/><path fill="none" stroke="#7495d4" stroke-width="2" stroke-linecap="round" stroke-linejoin="round" stroke-miterlimit="10" d="M223.9 97.5l16.5 11.4 28.8-20 28.8 20 18.9-13.1m314.8-15.9l7.4 5.1L658 71.9 676.9 85l6.2-4.3M440.9 25.1l.8.5L457 15l15.3 10.6 4.4-3.1m258.8 136.9c-6.9-1-14.8-1.6-24.4-1.6-55.1 0-55.1 20-110.2 20-13.6 0-23.8-1.2-32.4-3.1-26.1-5.6-36.3-16.9-77.9-16.9m84.5 47.5c6.8 1 14.8 1.6 24.4 1.6 55.1 0 55.1-20 110.2-20 13.6 0 23.8 1.2 32.4 3.1 26.1 5.6 36.3 16.9 77.9 16.9M51.4 58.6c13.7 3.8 23.6 9 38.8 12.2 8.5 1.8 18.8 3.1 32.4 3.1 55.1 0 55.1-20 110.2-20 7.4 0 13.9.4 19.6 1m335.5 205.6c-6.8-1-14.8-1.6-24.4-1.6-55.1 0-55.1 20-110.2 20-13.6 0-23.9-1.2-32.4-3.1-26.1-5.6-36.3-16.9-77.9-16.9m99-186.6c6.9 1 14.8 1.6 24.4 1.6 55.1 0 55.1-20 110.2-20 13.6 0 23.9 1.2 32.4 3 12.3 2.6 21.1 6.6 31.3 10M1 261.3c6.8 1 14.8 1.6 24.4 1.6 55.1 0 55.1-20 110.2-20 13.6 0 23.8 1.2 32.4 3.1 26.1 5.6 36.3 17 77.9 17M563.2 32c-37.2 0-49.3 9.1-70.1 15-10.1 2.9-22.2 5-40.1 5-11.6 0-20.7-.9-28.4-2.3M145 215.9c55.1 0 55.1 20 110.3 20 55.1 0 55.1-20 110.2-20 40.8 0 51.4 11 76.5 16.6"/></svg>