<svg id="Calque_1" xmlns="http://www.w3.org/2000/svg" viewBox="0 0 849.3 308"><style>.st0{fill:none;stroke:#6b8ac3;stroke-width:2;stroke-linecap:round;stroke-linejoin:round;stroke-miterlimit:10}</style><path class="st0" d="M1 280c55.1 0 55.1 20 110.3 20 55.1 0 55.1-20 110.2-20 40.8 0 51.4 11 76.5 16.6M478 251c55.1 0 55.1 20 110.3 20 55.1 0 55.1-20 110.2-20 40.8 0 51.4 11 76.5 16.6M685 188c30.3 0 30.3 11 60.6 11s30.3-11 60.6-11c22.4 0 28.3 6 42.1 9.2M22.1 143c30.3 0 30.3 11 60.6 11s30.3-11 60.6-11c22.4 0 28.3 6 42.1 9.2"/><path class="st0" d="M172 288v-62c0-1.3.5-2.6 1.5-3.5l67-67c2-2 5.1-2 7.1 0l67 67c.9.9 1.5 2.2 1.5 3.5v81M757 198.4v-55.8c0-1.3.5-2.6 1.5-3.5l40-40c2-2 5.1-2 7.1 0l40 40c.9.9 1.5 2.2 1.5 3.5V172"/><path class="st0" d="M280 187.9V132c0-2.8 2.2-5 5-5h62c2.8 0 5-2.2 5-5V78c0-2.8 2.2-5 5-5h62c2.8 0 5 2.2 5 5v107c0 2.8 2.2 5 5 5h62c2.8 0 5 2.2 5 5v31m144-27V87c0-2.8 2.2-5 5-5h80c2.8 0 5 2.2 5 5v94"/><path class="st0" d="M703 82V6c0-2.8 2.2-5 5-5h62c2.8 0 5 2.2 5 5v94M45.7 51.2V22c0-2.8 2.2-5 5-5h53.7c2.8 0 5 2.2 5 5v110.1"/><path class="st0" d="M4.8 143V56.2c0-2.8 2.2-5 5-5h53.7c2.8 0 5 2.2 5 5V152m76.5-9V97.7c0-1.3.5-2.6 1.5-3.5l22-22.1c2-2 5.1-2 7.1 0l22 22.1c.9.9 1.5 2.2 1.5 3.5V152M469 172V78c0-2.8 2.2-5 5-5h80c2.8 0 5 2.2 5 5v175"/></svg>