<svg xmlns="http://www.w3.org/2000/svg" viewBox="0 0 1441 1396"><path d="M576 325V82c0-39.8 32.2-72 72-72h270" fill="none" stroke="#6b8ac3" stroke-width="2" stroke-linecap="round" stroke-linejoin="round" stroke-miterlimit="10"/><path d="M846 226V82c0-39.8 32.2-72 72-72h81l126-9 72 9 243-9M594 73v63m0 9v99m18-198v108m0 18v72m0 18v18m18-234v198m27-135V46m0 171v45m0 9v18m-63-18v45m45-162v-9l9-18v-18h18l18-27m-27 63v63M576 82l-99-9-99 9-36-18-144 18H1m764 81l-27 18-9 27m81 54l-18 9-27 9-18 9-9 27m-117-18l-18 27-18 18h-27l-18 18m36 57.8V361m81-315c0-19.9 16.1-36 36-36m0 36c0-19.9 16.1-36 36-36m0 36c0-19.9 16.1-36 36-36m0 36c0-19.9 16.1-36 36-36m0 36c0-19.9 16.1-36 36-36m0 36c0-19.9 16.1-36 36-36m-45 36c0-19.9 16.1-36 36-36m-45 36c0-19.9 16.1-36 36-36m-72 36c0-19.9 16.1-36 36-36m-81 36c0-19.9 16.1-36 36-36M630 46c0-19.9 16.1-36 36-36m-54 36c0-19.9 16.1-36 36-36m45 36v189m0 9v9m0 9v126m-99 63V343M729 46v99m9-81v54m0 18v27m-9 0v9m36-126v99m0 27v45m0 9v36m18-207v126m0 9v9m0 9v45m54-207v81m0 9v9m0 18v108m0 9v9m0 144V298m-54-9v144m-54-216v63m0 9v9m36 0v54m0 18v18m0 18v72m18-36v9m45-396v99m0 9v63m0 18v9m0 18v108m-9-333v72m0 45v-18m0-18v9m0 36v81m0 18v162m-225 27v126m-18-162v72m261-54v9m-18-9v45M801 46v171m0 36v-27m0 54v36m0 9v9m0 9v9m0 9v144m-18-45v90m0 9v18m-90-180v72m0 9v9m-117 18v153m18-63v18m18-288v18m0 9v108m0 9v18m0 9v135m18-378v36m0 18v126m0 9v18m0 9v54m27-225v117m0 9v18m0 9v9m0 9v36m72-171v135m0 18v9m90.1 205V566m-54-9v144m-18-81v126m18-36v9m36-180v162m-225 0v153m117-81l-63 36-9 27m225-81l-18-9-36 36m27-72v9m0 54v135m0 18v45m0 18v18m-18-297v45m0 36v9m0 9v54m0 9v162m-18-405v144m0 27v36m0 9v18m0 9v9m0 9v54m0 18v117m-18-351v90m0 9v18m0 9v108m0 9v18m-90-360v108m0 9v9m0 54v117m0 9v9m-117-324v306m0 9v9m0 18v99m0 9v9m18-216v18m0 9v18m0 63v18m0 9v90m18-477v288m0 54v9m0 9v45m18-351v126m0 108v81m0 9v9m0 9v63m27-252v171m0-297v81m36 180v90m-36-45v9m72-405v135m0 18v9m0 18v153m0 9v9m0 9v99m3.2 153.7c21.2 3.7 37.3 22.1 37.3 44.3" fill="none" stroke="#6b8ac3" stroke-width="2" stroke-linecap="round" stroke-linejoin="round" stroke-miterlimit="10"/><path d="M634.6 1241c0-19.1 15-34.8 33.8-35.9 4.9-5.6 12.1-9.1 20.2-9.1 12 0 22.2 7.8 25.7 18.6.9 2.6 1.3 5.4 1.3 8.4m-373.5 27.9s3.1-23.8 8.5-33.9c-5.4-8.4-8.5-18.4-8.5-29.1 0-29.8 24.2-54 54-54 24.6 0 45.4 16.5 51.9 39 8-12.6 22.1-21 38.1-21 24.9 0 45 20.1 45 45v1.1c15.5 4 27 18.1 27 34.9m225-.4s11.5-30.9 27-34.9v-1.1c0-24.9 20.1-45 45-45 16 0 30.1 8.4 38.1 21 6.5-22.5 27.3-39 51.9-39 29.8 0 54 24.2 54 54 0 10.7-3.1 20.7-8.5 29.1 5.4 10.1 8.5 21.7 8.5 33.9m-745.5 38.9c57.6 0 57.6 24 115.2 24s57.6-24 115.2-24 57.6 24 115.2 24 57.6-24 115.2-24 57.6 24 115.2 24m225 39c-27 0-27-12-54-12s-27 12-54 12-27-12-54-12-27 12-54 12-27-12-54-12m-396 9c36 0 36 12 72 12s36-12 72-12 36 12 72 12 36-12 72-12 36 12 72 12" fill="none" stroke="#6b8ac3" stroke-width="2" stroke-linecap="round" stroke-linejoin="round" stroke-miterlimit="10"/></svg>