<svg xmlns="http://www.w3.org/2000/svg" viewBox="0 0 74 74"><defs><style>.cls-1{fill:none;stroke:#1d1d1b;stroke-linecap:round;stroke-linejoin:round;stroke-width:2px}</style></defs><title>Fichier 1</title><g id="Calque_2" data-name="Calque 2"><g id="Calque_1-2" data-name="Calque 1"><circle class="cls-1" cx="37.01" cy="31.31" r="6.13"/><path class="cls-1" d="M41.57 35.38c3.37 2.46 5.69 7.55 5.69 13.43m-20.5 0c0-5.88 2.32-11 5.69-13.43"/><circle class="cls-1" cx="52.73" cy="35.13" r="3.77"/><path class="cls-1" d="M55.54 37.63c2.07 1.51 3.5 4.65 3.5 8.27m-12.42-2.29a9.35 9.35 0 0 1 3.31-6"/><circle class="cls-1" cx="21.27" cy="35.14" r="3.77"/><path class="cls-1" d="M24.08 37.64a9.3 9.3 0 0 1 3.3 6M15 45.91c0-3.62 1.43-6.75 3.5-8.27"/><circle class="cls-1" cx="37" cy="37" r="36"/></g></g></svg>