<svg viewBox="0 0 28.9 31.6"><path d="M4 3.8h20.9c1.7 0 3 1.3 3 3v20.9c0 1.7-1.3 3-3 3H4c-1.7 0-3-1.3-3-3V6.8c0-1.7 1.3-3 3-3zM10 1v5.4M18.9 1v5.4" fill="none" stroke="#1d1d1b" stroke-width="2" stroke-linecap="round" stroke-linejoin="round" stroke-miterlimit="10"/><path d="M7 25.8c-.7 0-1.2-.5-1.2-1.2V11c0-.7.5-1.2 1.2-1.2h14.4c.7 0 1.2.5 1.2 1.2v13.7c0 .7-.5 1.2-1.2 1.2H7z" fill="none" stroke="#1d1d1b" stroke-width="2" stroke-linecap="round" stroke-linejoin="round" stroke-miterlimit="10"/></svg>