<?xml version="1.0" encoding="utf-8"?>
<!-- Generator: Adobe Illustrator 21.0.0, SVG Export Plug-In . SVG Version: 6.00 Build 0)  -->
<svg version="1.1" id="Capa_1" xmlns="http://www.w3.org/2000/svg" xmlns:xlink="http://www.w3.org/1999/xlink" x="0px" y="0px"
	 viewBox="0 0 18.5 18.5" style="enable-background:new 0 0 18.5 18.5;" xml:space="preserve">
<g>
	<path fill="currentColor" d="M9.3,1.7c2.5,0,2.8,0,3.7,0.1c0.9,0,1.4,0.2,1.7,0.3c0.4,0.2,0.7,0.4,1.1,0.7
		c0.3,0.3,0.5,0.6,0.7,1.1c0.1,0.3,0.3,0.8,0.3,1.7c0,1,0.1,1.3,0.1,3.7s0,2.8-0.1,3.7c0,0.9-0.2,1.4-0.3,1.7
		c-0.2,0.4-0.4,0.7-0.7,1.1c-0.3,0.3-0.6,0.5-1.1,0.7c-0.3,0.1-0.8,0.3-1.7,0.3c-1,0-1.3,0.1-3.7,0.1s-2.8,0-3.7-0.1
		c-0.9,0-1.4-0.2-1.7-0.3c-0.4-0.2-0.7-0.4-1.1-0.7c-0.3-0.3-0.5-0.6-0.7-1.1c-0.1-0.3-0.3-0.8-0.3-1.7c0-1-0.1-1.3-0.1-3.7
		s0-2.8,0.1-3.7c0-0.9,0.2-1.4,0.3-1.7c0.2-0.4,0.4-0.7,0.7-1.1C3.1,2.4,3.4,2.2,3.8,2c0.3-0.1,0.8-0.3,1.7-0.3
		C6.5,1.7,6.8,1.7,9.3,1.7 M9.3,0C6.8,0,6.4,0,5.5,0.1c-1,0-1.7,0.2-2.3,0.4C2.6,0.7,2.1,1,1.6,1.6C1,2.1,0.7,2.6,0.5,3.2
		C0.3,3.8,0.1,4.5,0.1,5.5C0,6.4,0,6.8,0,9.3c0,2.5,0,2.8,0.1,3.8c0,1,0.2,1.7,0.4,2.3C0.7,16,1,16.5,1.6,17c0.5,0.5,1,0.8,1.6,1.1
		c0.6,0.2,1.3,0.4,2.3,0.4c1,0,1.3,0.1,3.8,0.1s2.8,0,3.8-0.1c1,0,1.7-0.2,2.3-0.4c0.6-0.2,1.1-0.6,1.6-1.1c0.5-0.5,0.8-1,1.1-1.6
		c0.2-0.6,0.4-1.3,0.4-2.3c0-1,0.1-1.3,0.1-3.8s0-2.8-0.1-3.8c0-1-0.2-1.7-0.4-2.3c-0.2-0.6-0.6-1.1-1.1-1.6c-0.5-0.5-1-0.8-1.6-1.1
		c-0.6-0.2-1.3-0.4-2.3-0.4C12.1,0,11.8,0,9.3,0L9.3,0z"/>
	<path fill="currentColor" d="M9.3,4.5c-2.6,0-4.8,2.1-4.8,4.8S6.6,14,9.3,14S14,11.9,14,9.3S11.9,4.5,9.3,4.5z M9.3,12.4
		c-1.7,0-3.1-1.4-3.1-3.1s1.4-3.1,3.1-3.1s3.1,1.4,3.1,3.1S11,12.4,9.3,12.4z"/>
	<circle fill="currentColor" cx="14.2" cy="4.3" r="1.1"/>
</g>
</svg>
