<?xml version="1.0" encoding="utf-8"?>
<!-- Generator: Adobe Illustrator 21.0.0, SVG Export Plug-In . SVG Version: 6.00 Build 0)  -->
<svg version="1.1" id="Calque_1" xmlns="http://www.w3.org/2000/svg" xmlns:xlink="http://www.w3.org/1999/xlink" x="0px" y="0px"
	 viewBox="0 0 274.2 207.2" style="enable-background:new 0 0 274.2 207.2;" xml:space="preserve">
<style type="text/css">
	.st0{fill:none;stroke:#1D1D1B;stroke-width:2;stroke-linecap:round;stroke-linejoin:round;stroke-miterlimit:10;}
</style>
<path class="st0" d="M16.4,75.6c7.8-24.4,25.8-45.3,51.2-56.1c46.5-19.9,100.3,1.7,120.2,48.2c19.9,46.5-1.7,100.3-48.2,120.2
	s-100.3-1.7-120.2-48.2c-1.4-3.4-2.7-6.8-3.7-10.2"/>
<path class="st0" d="M198.3,143.1c-9.9,23.8-28.8,43.9-54.3,54.8c-52.1,22.3-112.4-1.9-134.7-54C-13,91.9,11.2,31.6,63.3,9.3
	c46.6-19.9,99.7-2.7,126.3,38.4"/>
<g>
	<path d="M56.9,59.8c-0.1,0.7-0.5,1.4-1,1.9c-1.6,1.9-4.3,1.9-6.5,0c-2.2-1.9-2.5-4.6-0.8-6.4c1.6-1.9,4.3-1.9,6.5,0
		c1.1,1,1.8,2.2,1.9,3.5l1.3,0.1l-0.1,1L56.9,59.8z M49.4,56c-1.2,1.4-0.8,3.3,0.8,4.8c1.7,1.5,3.7,1.6,4.9,0.2
		c0.3-0.4,0.6-0.8,0.7-1.3l-1.3-0.1l0.1-1l1.3,0.1c-0.1-0.8-0.6-1.7-1.6-2.5C52.6,54.7,50.6,54.6,49.4,56z"/>
	<path d="M57.6,54.2l-3.7-4.4l0.9-0.8l3.6,4.3c1.3,1.6,2.6,1.6,3.8,0.7c1.2-1,1.3-2.3,0-3.9l-3.6-4.3l0.9-0.8l3.7,4.4
		c1.7,2,1.3,4-0.4,5.4C61.3,56.2,59.3,56.2,57.6,54.2z"/>
	<path d="M68,39.7l0.6,0.9l-4.1,2.5l1.6,2.6l3.7-2.3l0.6,0.9l-3.7,2.3l1.7,2.7l4.1-2.5l0.6,0.9l-5.1,3.2l-5-8.1L68,39.7z M64.5,40.9
		l0.1-2.2l1.1-0.7l-0.3,2.3L64.5,40.9z"/>
	<path d="M80,41.6c0.7,1.6,0,2.9-1.8,3.7l-3.1,1.4L71.2,38l2.8-1.3c1.8-0.8,3.2-0.5,3.9,1c0.5,1,0.1,1.9-0.4,2.4
		C78.6,40,79.6,40.6,80,41.6z M75.7,40.5c1.2-0.5,1.6-1.3,1.2-2.2c-0.4-0.9-1.2-1.1-2.4-0.6l-1.8,0.8l1.2,2.8L75.7,40.5z M75.7,45.2
		l2-0.9c1.2-0.5,1.5-1.4,1.1-2.3c-0.4-0.9-1.3-1.2-2.5-0.7l-2,0.9L75.7,45.2z"/>
	<path d="M86.3,32.5l0.3,1L82,34.9l0.8,2.9l4.2-1.2l0.3,1l-4.2,1.2l0.9,3.1l4.6-1.3l0.3,1.1l-5.8,1.7l-2.6-9.1L86.3,32.5z"/>
	<path d="M93.5,31.1c2-0.3,3.4,0.7,4.1,2.4l-1.2,0.2c-0.5-1-1.4-1.6-2.7-1.4c-1.8,0.3-2.8,1.9-2.5,4.2c0.3,2.2,1.7,3.6,3.5,3.3
		c1.3-0.2,2-1,2.2-2.2l1.2-0.2c-0.1,1.8-1.3,3.1-3.2,3.4c-2.4,0.3-4.5-1.3-4.9-4.2C89.5,33.6,91.1,31.4,93.5,31.1z"/>
	<path d="M100.6,40.1c-0.4,0-0.7-0.3-0.7-0.7c0-0.5,0.3-0.8,0.8-0.9c0.5,0,0.8,0.3,0.9,0.9c0,0.3-0.1,0.7-0.3,1l-0.8,1.4l-0.8,0
		L100.6,40.1z"/>
	<path d="M112.5,30.9c2,0.2,3.1,1.5,3.3,3.3l-1.2-0.1c-0.3-1.1-1-1.9-2.3-2.1c-1.8-0.2-3.2,1.2-3.4,3.4c-0.3,2.2,0.8,3.9,2.6,4.1
		c1.3,0.2,2.2-0.5,2.7-1.5l1.2,0.1c-0.6,1.7-2,2.7-4,2.5c-2.4-0.3-4-2.4-3.6-5.3C108.1,32.3,110.2,30.6,112.5,30.9z"/>
	<path d="M123.3,33.2l1.1,10.1l-1.2-0.3l-0.3-3l-3.8-1l-1.8,2.5l-1.2-0.3l6.1-8.2L123.3,33.2z M119.8,38l3,0.8l-0.4-4.3L119.8,38z"
		/>
	<path d="M132.9,47l-0.8-0.4l-1.8-9l-3.1,6.9l-1.1-0.5l3.9-8.6l1.1,0.5l1.7,8.6l2.9-6.6l1.1,0.5L132.9,47z"/>
	<path d="M143.7,42.5l-2,10l-1-0.7l0.6-3l-3.3-2.1l-2.5,1.8l-1-0.7l8.2-5.9L143.7,42.5z M138.9,46l2.6,1.7l0.9-4.2L138.9,46z"/>
	<path d="M149.4,46.6l2.3,2c2.1,1.8,2.2,4.4,0.3,6.6c-1.9,2.2-4.5,2.3-6.6,0.5l-2.3-2L149.4,46.6z M146.2,54.8
		c1.6,1.4,3.5,1.2,5-0.5c1.5-1.7,1.5-3.6-0.1-5l-1.4-1.2l-4.8,5.5L146.2,54.8z"/>
	<path d="M160,57l-4.9,8.9l-0.8-0.9l1.5-2.7l-2.5-3l-2.9,1l-0.8-0.9l9.6-3.3L160,57z M154.3,59l2,2.4l2.1-3.8L154.3,59z"/>
	<path d="M150.3,147.4c0.1-0.7,0.5-1.4,1-1.9c1.6-1.9,4.3-1.9,6.5,0c2.2,1.9,2.5,4.6,0.8,6.4c-1.6,1.9-4.3,1.9-6.5,0
		c-1.2-1-1.8-2.2-1.9-3.5l-1.3-0.1l0.1-1L150.3,147.4z M157.8,151.2c1.2-1.4,0.8-3.3-0.8-4.8c-1.7-1.5-3.7-1.6-4.9-0.2
		c-0.3,0.4-0.6,0.8-0.7,1.3l1.3,0.1l-0.1,1l-1.3-0.1c0.1,0.8,0.6,1.7,1.6,2.5C154.6,152.5,156.6,152.6,157.8,151.2z"/>
	<path d="M149.6,153l3.7,4.4l-0.9,0.8l-3.6-4.3c-1.3-1.5-2.6-1.6-3.8-0.7c-1.2,1-1.3,2.3,0,3.9l3.6,4.3l-0.9,0.8l-3.7-4.4
		c-1.7-2-1.3-4,0.4-5.4C145.9,151,147.9,151,149.6,153z"/>
	<path d="M139.2,167.6l-0.6-0.9l4.1-2.5l-1.6-2.6l-3.7,2.3l-0.6-0.9l3.7-2.3l-1.7-2.7l-4.1,2.5l-0.6-0.9l5.1-3.2l5,8.1L139.2,167.6z
		 M142.7,166.4l-0.1,2.2l-1.1,0.7l0.3-2.3L142.7,166.4z"/>
	<path d="M127.3,165.6c-0.7-1.6,0-2.9,1.8-3.7l3.1-1.4l3.8,8.6l-2.8,1.3c-1.8,0.8-3.2,0.5-3.9-1c-0.5-1-0.1-1.9,0.4-2.4
		C128.7,167.2,127.7,166.6,127.3,165.6z M131.6,162l-2,0.9c-1.2,0.5-1.5,1.4-1.1,2.3c0.4,0.9,1.3,1.2,2.5,0.7l2-0.9L131.6,162z
		 M131.5,166.7c-1.2,0.5-1.6,1.3-1.2,2.2s1.2,1.1,2.4,0.6l1.8-0.8l-1.2-2.8L131.5,166.7z"/>
	<path d="M120.9,174.7l-0.3-1l4.6-1.3l-0.8-2.9l-4.2,1.2l-0.3-1l4.2-1.2l-0.9-3.1l-4.6,1.3l-0.3-1.1l5.8-1.7l2.6,9.1L120.9,174.7z"
		/>
	<path d="M113.8,176.2c-2,0.3-3.4-0.7-4.1-2.4l1.2-0.2c0.5,1,1.4,1.6,2.7,1.4c1.8-0.3,2.8-1.9,2.4-4.2c-0.3-2.2-1.7-3.6-3.5-3.3
		c-1.3,0.2-2,1-2.2,2.2l-1.2,0.2c0.1-1.8,1.3-3.1,3.2-3.4c2.4-0.3,4.5,1.3,4.9,4.2C117.7,173.6,116.1,175.8,113.8,176.2z"/>
	<path d="M106.6,167.2c0.4,0,0.7,0.3,0.7,0.7c0,0.5-0.3,0.8-0.8,0.9c-0.5,0-0.8-0.3-0.9-0.9c0-0.3,0.1-0.7,0.3-1l0.8-1.4l0.8,0
		L106.6,167.2z"/>
	<path d="M94.7,176.3c-2-0.2-3.1-1.5-3.3-3.3l1.2,0.1c0.3,1.1,1,1.9,2.3,2.1c1.8,0.2,3.2-1.2,3.4-3.4c0.3-2.2-0.8-3.9-2.6-4.1
		c-1.3-0.2-2.2,0.5-2.7,1.5l-1.2-0.1c0.6-1.7,2-2.7,4-2.5c2.4,0.3,4,2.4,3.6,5.3C99.1,174.9,97,176.6,94.7,176.3z"/>
	<path d="M83.9,174l-1.1-10.1l1.2,0.3l0.3,3l3.8,1l1.8-2.5l1.2,0.3l-6.1,8.2L83.9,174z M87.4,169.2l-3-0.8l0.4,4.3L87.4,169.2z"/>
	<path d="M74.4,160.2l0.8,0.4l1.8,9l3.1-6.9l1.1,0.5l-3.9,8.6l-1.1-0.5l-1.7-8.6l-2.9,6.6l-1.1-0.5L74.4,160.2z"/>
	<path d="M63.5,164.7l2-10l1,0.7l-0.6,3l3.3,2.1l2.5-1.8l1,0.7l-8.2,5.9L63.5,164.7z M68.3,161.2l-2.6-1.7l-0.9,4.2L68.3,161.2z"/>
	<path d="M57.8,160.7l-2.3-2c-2.1-1.8-2.2-4.4-0.3-6.6c1.9-2.2,4.5-2.3,6.6-0.5l2.3,2L57.8,160.7z M61.1,152.4
		c-1.6-1.4-3.5-1.2-5,0.5c-1.5,1.7-1.5,3.6,0.1,5l1.4,1.2l4.8-5.5L61.1,152.4z"/>
	<path d="M47.3,150.3l4.9-8.9l0.8,0.9l-1.5,2.7l2.5,3l2.9-1l0.8,0.9l-9.6,3.3L47.3,150.3z M52.9,148.3l-2-2.4l-2.1,3.8L52.9,148.3z"
		/>
</g>
<path class="st0" d="M89.4,70.4c-0.2,2-1.2,5.2-2.7,10.7c-1.8,6.4,1.6,12.5,5,15.5c4,3.5,6.7,6.6,9.1,9.6c3.4,4.4,5.4,11.4,5.3,10.8
	l-3.3,1.4c-3.5-8.1-9.3-14.7-16.8-15.4c-10.8-1.1-15.8,10.9-9.3,18.4c3.4,3.9,6.6,4.4,7.3,4.1c0,0-3.3-4.5-0.8-8.6
	c2.4-3.9,7.2-4.2,10.4-2.2c3,1.9,4.9,5.6,4.9,5.6l-6.3,2.7l2,4.6l12.5-5.4c0,0,2.5,6.7-4.7,9c0,0,3,4.8,8.2-0.6c0,0,2,5.5,7.5,6.4
	l0,0l0,0c3.2-4.6,0.5-9.8,0.5-9.8c7.5,0,6.2-5.5,6.2-5.5c-6.6,3.6-9.8-2.8-9.8-2.8l12.6-5.4l-2-4.6l-6.3,2.7c0,0-1.3-3.9-0.6-7.4
	c0.7-3.7,4.3-7,8.8-6c4.7,1,5.7,6.5,5.7,6.5c0.7-0.3,2.6-2.9,2.1-8.1c-1-9.8-13.1-14.5-19.8-6c-4.7,6-3.9,14.7-0.5,22.8l-3.3,1.4
	c0.3,0.6-3.4-5.7-4.2-11.2c-0.6-3.8-0.9-8-0.6-13.2c0.2-4.5-1.9-11.2-7.7-14.3C93.9,73.1,91,71.6,89.4,70.4L89.4,70.4z"/>
<g>
	<path class="st0" d="M172.7,137c4.6-1.2,9.9-3,16-5.6c35.2-15,29.7-27.8,64.9-42.9c7.8-3.3,14.1-5.3,19.6-6.5"/>
	<path class="st0" d="M162.1,112.2c4.6-1.2,9.9-3,16-5.6c35.2-15,29.7-27.8,64.9-42.8c8.7-3.7,15.6-5.7,21.5-6.9
		c1.1-0.2,2.3-0.4,3.4-0.6"/>
	<path class="st0" d="M151.4,87.3c4.6-1.2,9.9-3,16-5.6c35.2-15,29.7-27.8,64.9-42.8c8.7-3.7,15.6-5.7,21.5-6.9
		c1.6-0.3,3.2-0.6,4.7-0.8"/>
</g>
</svg>
