<?xml version="1.0" encoding="utf-8"?>
<!-- Generator: Adobe Illustrator 21.0.0, SVG Export Plug-In . SVG Version: 6.00 Build 0)  -->
<svg version="1.1" id="Capa_1" xmlns="http://www.w3.org/2000/svg" xmlns:xlink="http://www.w3.org/1999/xlink" x="0px" y="0px"
	 viewBox="0 0 17 14.5" style="enable-background:new 0 0 17 14.5;" xml:space="preserve">
<path fill="currentColor" d="M12,1.5v3.2c-0.1,0.1-0.2,0.2-0.3,0.2c-0.1,0.1-0.2,0.1-0.2,0.1c-0.1,0-0.1,0-0.2-0.1
	c0-0.1-0.1-0.1-0.1-0.2V1.5h-0.9v3.6c0,0.3,0.1,0.4,0.2,0.6c0.1,0.1,0.3,0.2,0.5,0.2c0.2,0,0.3,0,0.5-0.1c0.2-0.1,0.3-0.2,0.5-0.4
	v0.5h0.9V1.5H12z M9.3,1.7C9.1,1.5,8.8,1.4,8.4,1.4c-0.4,0-0.7,0.1-1,0.3C7.2,1.9,7.1,2.2,7.1,2.5v2.2c0,0.4,0.1,0.7,0.3,0.9
	C7.7,5.8,8,5.9,8.4,5.9c0.4,0,0.7-0.1,0.9-0.3c0.2-0.2,0.3-0.5,0.3-0.9V2.5C9.7,2.2,9.5,1.9,9.3,1.7z M8.8,4.8c0,0.1,0,0.2-0.1,0.3
	C8.6,5.1,8.5,5.2,8.4,5.2c-0.1,0-0.2,0-0.3-0.1C8.1,5,8,4.9,8,4.8V2.5c0-0.1,0-0.2,0.1-0.2c0.1-0.1,0.2-0.1,0.3-0.1
	c0.1,0,0.2,0,0.3,0.1c0.1,0.1,0.1,0.1,0.1,0.2V4.8z M6.1,0L5.5,2.3H5.4L4.7,0h-1l1.2,3.5v2.3h1V3.4L7.1,0H6.1z M12.9,10.2
	c0.1,0.1,0.1,0.2,0.1,0.3v0.4h-0.7v-0.4c0-0.2,0-0.3,0.1-0.3c0.1-0.1,0.1-0.1,0.3-0.1C12.7,10.1,12.8,10.1,12.9,10.2z M10.2,10.2
	c-0.1-0.1-0.1-0.1-0.2-0.1c-0.1,0-0.1,0-0.2,0c-0.1,0-0.1,0.1-0.2,0.1v2.4c0.1,0.1,0.1,0.1,0.2,0.1c0.1,0,0.1,0,0.2,0
	c0.1,0,0.2,0,0.2-0.1c0-0.1,0.1-0.1,0.1-0.3v-2C10.3,10.3,10.2,10.2,10.2,10.2z M10.2,10.2c-0.1-0.1-0.1-0.1-0.2-0.1
	c-0.1,0-0.1,0-0.2,0c-0.1,0-0.1,0.1-0.2,0.1v2.4c0.1,0.1,0.1,0.1,0.2,0.1c0.1,0,0.1,0,0.2,0c0.1,0,0.2,0,0.2-0.1
	c0-0.1,0.1-0.1,0.1-0.3v-2C10.3,10.3,10.2,10.2,10.2,10.2z M14.6,7.2H2.4C1.1,7.2,0,8.3,0,9.6v2.5c0,1.3,1.1,2.4,2.4,2.4h12.2
	c1.3,0,2.4-1.1,2.4-2.4V9.6C17,8.3,15.9,7.2,14.6,7.2z M5.7,8.9H4.8v4.5H3.9V8.9H3V8.1h2.7V8.9z M8.3,13.4H7.5V13
	c-0.1,0.2-0.3,0.3-0.4,0.4c-0.2,0.1-0.3,0.1-0.4,0.1c-0.2,0-0.3-0.1-0.4-0.2C6.1,13.2,6,13,6,12.7V9.5h0.8v3c0,0.1,0,0.2,0.1,0.2
	c0,0,0.1,0.1,0.2,0.1c0.1,0,0.1,0,0.2-0.1c0.1-0.1,0.2-0.1,0.2-0.2V9.5h0.8V13.4z M11.1,12.6c0,0.3-0.1,0.5-0.2,0.6
	c-0.1,0.1-0.3,0.2-0.5,0.2c-0.2,0-0.3,0-0.4-0.1c-0.1-0.1-0.2-0.1-0.3-0.3v0.3H8.8V8.1h0.8v1.7C9.7,9.7,9.8,9.6,10,9.5
	c0.1-0.1,0.2-0.1,0.4-0.1c0.2,0,0.4,0.1,0.6,0.2c0.1,0.2,0.2,0.4,0.2,0.7V12.6z M13.8,11.5h-1.5v0.7c0,0.2,0,0.3,0.1,0.4
	c0.1,0.1,0.1,0.1,0.3,0.1c0.1,0,0.2,0,0.3-0.1c0.1-0.1,0.1-0.2,0.1-0.4v-0.2h0.8v0.2c0,0.4-0.1,0.7-0.3,0.9
	c-0.2,0.2-0.5,0.3-0.9,0.3c-0.4,0-0.6-0.1-0.8-0.3c-0.2-0.2-0.3-0.5-0.3-0.9v-1.7c0-0.3,0.1-0.6,0.3-0.8c0.2-0.2,0.5-0.3,0.8-0.3
	c0.4,0,0.6,0.1,0.8,0.3c0.2,0.2,0.3,0.5,0.3,0.8V11.5z M9.9,10.1c-0.1,0-0.1,0-0.2,0c-0.1,0-0.1,0.1-0.2,0.1v2.4
	c0.1,0.1,0.1,0.1,0.2,0.1c0.1,0,0.1,0,0.2,0c0.1,0,0.2,0,0.2-0.1c0-0.1,0.1-0.1,0.1-0.3v-2c0-0.1,0-0.2-0.1-0.3
	C10.1,10.1,10,10.1,9.9,10.1z M10.2,10.2c-0.1-0.1-0.1-0.1-0.2-0.1c-0.1,0-0.1,0-0.2,0c-0.1,0-0.1,0.1-0.2,0.1v2.4
	c0.1,0.1,0.1,0.1,0.2,0.1c0.1,0,0.1,0,0.2,0c0.1,0,0.2,0,0.2-0.1c0-0.1,0.1-0.1,0.1-0.3v-2C10.3,10.3,10.2,10.2,10.2,10.2z
	 M10.2,10.2c-0.1-0.1-0.1-0.1-0.2-0.1c-0.1,0-0.1,0-0.2,0c-0.1,0-0.1,0.1-0.2,0.1v2.4c0.1,0.1,0.1,0.1,0.2,0.1c0.1,0,0.1,0,0.2,0
	c0.1,0,0.2,0,0.2-0.1c0-0.1,0.1-0.1,0.1-0.3v-2C10.3,10.3,10.2,10.2,10.2,10.2z"/>
</svg>
